# xmcd
#
# Track frame offsets: 
#        150
#        13840
#        30178
#        44900
#        62135
#        78369
#        89707
#        105967
#        118402
#        130132
#        140673
#        156631
#        176060
#        188666
#        202571
#        216416
#        230276
#        243306
#        260419
#        273807
#
# Disc length: 3844 seconds
#
# Revision: 0
# Processed by: cddbd v1.5.2PL0 Copyright (c) Steve Scherf et al.
# Submitted via: ExactAudioCopyFreeDBPlugin 1.0
#
DISCID=1e0f0214
DTITLE=Verschiedene - Das Beste der Volksmusik CD 1
DYEAR=2018
DGENRE=Volksmusik
TTITLE0=AlpenRebellen - A Volksliad
TTITLE1=Stefanie Hertel - Dirndlrock (Hüttenmix)
TTITLE2=Patrick Lindner - Heimat deine Sterne
TTITLE3=Monika Martin - Mit dir
TTITLE4=Heintje - Das Lied der Sehnsucht
TTITLE5=Oesch´s die Dritten - Ku-Ku Jodel
TTITLE6=Captain Cook - Blau blüht der Enzian
TTITLE7=Mühlenhof Musikanten - Wo die Nordseewellen
TTITLE8=Das Original Oberkrainer Quintett - Wenn am Sonntagabend die D
TTITLE8=orfmusik spielt
TTITLE9=Lolita - Der weiße Mond von Maratonga
TTITLE10=Die Bergkameraden - Heimatsterne
TTITLE11=Andrea Jürgens - Ich zeige die mein Paradis
TTITLE12=Fred Bertelmann - Der lachende Vagabund
TTITLE13=Marianne and Michael - Wann fangt denn endlich d´Musi an
TTITLE14=Hansi Hinterseer and Lena Valaitis - Muss i denn zum Städtele h
TTITLE14=inaus
TTITLE15=Gaby Albrecht - Ewige Liebe
TTITLE16=Ernst Mosch - Böhmischer Wind
TTITLE17=Renate and Werner Leismann - Ein Schlafsack und eine Gitarre
TTITLE18=Achim Mentzel - In Arenal ist Damenwahl
TTITLE19=Seer - Wild´s Wässer
EXTD=
EXTT0=
EXTT1=
EXTT2=
EXTT3=
EXTT4=
EXTT5=
EXTT6=
EXTT7=
EXTT8=
EXTT9=
EXTT10=
EXTT11=
EXTT12=
EXTT13=
EXTT14=
EXTT15=
EXTT16=
EXTT17=
EXTT18=
EXTT19=
PLAYORDER=
